<mxfile host="app.diagrams.net" modified="2023-09-11T14:07:52.902Z" agent="Mozilla/5.0 (Macintosh; Intel Mac OS X 10_15_7) AppleWebKit/605.1.15 (KHTML, like Gecko) Version/16.4 Safari/605.1.15" version="21.7.2" etag="rHL0186FGQsTtsfEggqZ" type="github">
  <diagram name="페이지-1" id="EU-Y-B1Bqmc_hmnzDYhY">
    <mxGraphModel>
      <root>
        <mxCell id="0" />
        <mxCell id="1" parent="0" />
      </root>
    </mxGraphModel>
  </diagram>
</mxfile>
